<mxfile host="Electron" modified="2024-03-16T10:44:51.687Z" agent="Mozilla/5.0 (Windows NT 10.0; Win64; x64) AppleWebKit/537.36 (KHTML, like Gecko) draw.io/24.0.4 Chrome/120.0.6099.109 Electron/28.1.0 Safari/537.36" etag="7fPpOwOTmr_QuS6a2_FW" version="24.0.4" type="device">
  <diagram name="第 1 页" id="HAKIwFSAGQVCsQMn-pUv">
    <mxGraphModel dx="1434" dy="836" grid="1" gridSize="10" guides="1" tooltips="1" connect="1" arrows="1" fold="1" page="0" pageScale="1" pageWidth="827" pageHeight="1169" math="0" shadow="0">
      <root>
        <mxCell id="0" />
        <mxCell id="1" parent="0" />
        <mxCell id="TZ9D1kvtmrs5dQd9IPCH-13" value="" style="edgeStyle=orthogonalEdgeStyle;rounded=0;orthogonalLoop=1;jettySize=auto;html=1;" edge="1" parent="1" source="TZ9D1kvtmrs5dQd9IPCH-11" target="TZ9D1kvtmrs5dQd9IPCH-12">
          <mxGeometry relative="1" as="geometry" />
        </mxCell>
        <mxCell id="TZ9D1kvtmrs5dQd9IPCH-11" value="Driver" style="rounded=0;whiteSpace=wrap;html=1;fillColor=#fff2cc;strokeColor=#d6b656;verticalAlign=top;fontSize=15;fontStyle=1" vertex="1" parent="1">
          <mxGeometry x="100" y="290" width="250" height="380" as="geometry" />
        </mxCell>
        <mxCell id="TZ9D1kvtmrs5dQd9IPCH-2" value="MxInit" style="text;html=1;align=center;verticalAlign=middle;whiteSpace=wrap;rounded=0;strokeColor=#b85450;fillColor=#f8cecc;fontSize=14;" vertex="1" parent="1">
          <mxGeometry x="130" y="330" width="60" height="30" as="geometry" />
        </mxCell>
        <mxCell id="TZ9D1kvtmrs5dQd9IPCH-3" value="MxRead" style="text;html=1;align=center;verticalAlign=middle;whiteSpace=wrap;rounded=0;strokeColor=#b85450;fillColor=#f8cecc;fontSize=14;" vertex="1" parent="1">
          <mxGeometry x="130" y="370" width="60" height="30" as="geometry" />
        </mxCell>
        <mxCell id="TZ9D1kvtmrs5dQd9IPCH-4" value="MxWrite" style="text;html=1;align=center;verticalAlign=middle;whiteSpace=wrap;rounded=0;strokeColor=#b85450;fillColor=#f8cecc;fontSize=14;" vertex="1" parent="1">
          <mxGeometry x="130" y="410" width="60" height="30" as="geometry" />
        </mxCell>
        <mxCell id="TZ9D1kvtmrs5dQd9IPCH-5" value="MxErase" style="text;html=1;align=center;verticalAlign=middle;whiteSpace=wrap;rounded=0;strokeColor=#b85450;fillColor=#f8cecc;fontSize=14;" vertex="1" parent="1">
          <mxGeometry x="130" y="450" width="60" height="30" as="geometry" />
        </mxCell>
        <mxCell id="TZ9D1kvtmrs5dQd9IPCH-6" value="MxSuspend" style="text;html=1;align=center;verticalAlign=middle;whiteSpace=wrap;rounded=0;strokeColor=#b85450;fillColor=#f8cecc;fontSize=14;" vertex="1" parent="1">
          <mxGeometry x="130" y="490" width="110" height="30" as="geometry" />
        </mxCell>
        <mxCell id="TZ9D1kvtmrs5dQd9IPCH-7" value="MxDeepPowerDown" style="text;html=1;align=center;verticalAlign=middle;whiteSpace=wrap;rounded=0;strokeColor=#b85450;fillColor=#f8cecc;fontSize=14;" vertex="1" parent="1">
          <mxGeometry x="130" y="530" width="170" height="30" as="geometry" />
        </mxCell>
        <mxCell id="TZ9D1kvtmrs5dQd9IPCH-9" value="MxRealseDeepPowerDown" style="text;html=1;align=center;verticalAlign=middle;whiteSpace=wrap;rounded=0;strokeColor=#b85450;fillColor=#f8cecc;fontSize=14;" vertex="1" parent="1">
          <mxGeometry x="130" y="570" width="170" height="30" as="geometry" />
        </mxCell>
        <mxCell id="TZ9D1kvtmrs5dQd9IPCH-10" value="……" style="text;html=1;align=center;verticalAlign=middle;whiteSpace=wrap;rounded=0;strokeColor=#b85450;fillColor=#f8cecc;fontSize=14;fontStyle=1" vertex="1" parent="1">
          <mxGeometry x="130" y="610" width="130" height="30" as="geometry" />
        </mxCell>
        <mxCell id="TZ9D1kvtmrs5dQd9IPCH-12" value="Macronix&lt;div&gt;Flash&lt;/div&gt;" style="whiteSpace=wrap;html=1;fontSize=15;verticalAlign=top;fillColor=#d5e8d4;strokeColor=#82b366;rounded=0;fontStyle=1;" vertex="1" parent="1">
          <mxGeometry x="495" y="450" width="120" height="60" as="geometry" />
        </mxCell>
      </root>
    </mxGraphModel>
  </diagram>
</mxfile>
